<?xml version="1.0" encoding="UTF-8"?>
<svg xmlns="http://www.w3.org/2000/svg" viewBox="0 0 700 200" width="700" height="200">
  <defs>
    <linearGradient id="tealGrad" x1="0%" y1="0%" x2="100%" y2="100%">
      <stop offset="0%" style="stop-color:#3ac5c9"/>
      <stop offset="100%" style="stop-color:#1a7a7a"/>
    </linearGradient>
    <linearGradient id="darkGrad" x1="0%" y1="0%" x2="100%" y2="100%">
      <stop offset="0%" style="stop-color:#243b5c"/>
      <stop offset="100%" style="stop-color:#152238"/>
    </linearGradient>
    <linearGradient id="borderGrad" x1="0%" y1="0%" x2="100%" y2="100%">
      <stop offset="0%" style="stop-color:#e0e8f0"/>
      <stop offset="30%" style="stop-color:#8899aa"/>
      <stop offset="50%" style="stop-color:#c0ccd8"/>
      <stop offset="70%" style="stop-color:#8899aa"/>
      <stop offset="100%" style="stop-color:#e0e8f0"/>
    </linearGradient>
    <linearGradient id="textGrad" x1="0%" y1="0%" x2="0%" y2="100%">
      <stop offset="0%" style="stop-color:#ffffff"/>
      <stop offset="100%" style="stop-color:#b0c0d0"/>
    </linearGradient>
    <filter id="shadow">
      <feDropShadow dx="0" dy="1" stdDeviation="2" flood-color="#000000" flood-opacity="0.3"/>
    </filter>
    <filter id="glow">
      <feGaussianBlur stdDeviation="1" result="coloredBlur"/>
      <feMerge><feMergeNode in="coloredBlur"/><feMergeNode in="SourceGraphic"/></feMerge>
    </filter>
  </defs>

  <!-- Mini Shield -->
  <g transform="translate(20, 18) scale(0.7)">
    <path d="M100,10 L175,35 L175,125 C175,168 148,193 100,210 C52,193 25,168 25,125 L25,35 Z" 
          fill="url(#borderGrad)" filter="url(#shadow)"/>
    <path d="M100,18 L168,42 L168,123 C168,162 143,186 100,202 L100,18Z" fill="url(#tealGrad)"/>
    <path d="M100,18 L32,42 L32,123 C32,162 57,186 100,202 L100,18Z" fill="url(#darkGrad)"/>
    <line x1="100" y1="20" x2="100" y2="200" stroke="#4a6a8a" stroke-width="0.8" opacity="0.5"/>
    <g transform="translate(88, 38) scale(0.4)">
      <path d="M15,5 L28,10 L28,22 C28,30 22,35 15,38 C8,35 2,30 2,22 L2,10 Z" fill="none" stroke="#c0d0e0" stroke-width="2.5"/>
      <path d="M10,20 L14,24 L22,14" fill="none" stroke="#3ac5c9" stroke-width="2.5" stroke-linecap="round" stroke-linejoin="round"/>
    </g>
    <g transform="translate(84, 138) scale(0.85)">
      <rect x="5" y="16" width="24" height="20" rx="3" fill="#c0d0e0" opacity="0.9"/>
      <path d="M10,16 L10,10 C10,4 14,0 17,0 C20,0 24,4 24,10 L24,16" fill="none" stroke="#c0d0e0" stroke-width="2.5" opacity="0.9"/>
      <circle cx="17" cy="25" r="3" fill="#1a2d4a"/>
    </g>
  </g>

  <!-- ForgeComply 360 Text -->
  <text x="175" y="85" font-family="Arial, Helvetica, sans-serif" font-weight="700" font-size="50" fill="url(#textGrad)" letter-spacing="4" filter="url(#glow)">ForgeComply</text>
  
  <!-- 360 with teal accent -->
  <text x="540" y="85" font-family="Arial, Helvetica, sans-serif" font-weight="700" font-size="50" fill="#3ac5c9" letter-spacing="2">360</text>
  
  <!-- Trademark -->
  <text x="625" y="55" font-family="Arial, Helvetica, sans-serif" font-weight="400" font-size="14" fill="#8899aa">™</text>

  <!-- Tagline -->
  <text x="175" y="115" font-family="Arial, Helvetica, sans-serif" font-weight="300" font-size="16" fill="#6a7a8a" letter-spacing="3">OSCAL-NATIVE COMPLIANCE AUTOMATION</text>

  <!-- Divider line -->
  <line x1="175" y1="130" x2="600" y2="130" stroke="#3a9a9a" stroke-width="0.5" opacity="0.4"/>

  <!-- SDVOSB -->
  <text x="175" y="152" font-family="Arial, Helvetica, sans-serif" font-weight="300" font-size="10" fill="#4a6a8a" letter-spacing="4">FORGE CYBER DEFENSE | SDVOSB</text>
</svg>
